<svg width="1440" height="1024" viewBox="0 0 1440 1024" fill="none" xmlns="http://www.w3.org/2000/svg">
<circle cx="907" cy="714.5" r="250" fill="#F9BD89"/>
<path fill-rule="evenodd" clip-rule="evenodd" d="M1328 850.5C1368.27 850.5 1406.31 840.981 1440 824.069V376.931C1406.31 360.019 1368.27 350.5 1328 350.5C1189.93 350.5 1078 462.429 1078 600.5C1078 738.571 1189.93 850.5 1328 850.5Z" fill="#F49398"/>
<path fill-rule="evenodd" clip-rule="evenodd" d="M387 479.5C525.071 479.5 637 367.571 637 229.5C637 126.715 574.971 38.4185 486.305 0H287.695C199.029 38.4185 137 126.715 137 229.5C137 367.571 248.929 479.5 387 479.5Z" fill="#F1DDA6"/>
<path d="M657 303C795.071 303 907 191.071 907 53C907 34.8145 905.058 17.0825 901.371 0H781.5H412.629C408.942 17.0825 407 34.8145 407 53C407 191.071 518.929 303 657 303Z" fill="#F37F64"/>
<circle cx="720" cy="350.5" r="250" fill="#835677"/>
<path fill-rule="evenodd" clip-rule="evenodd" d="M331 72.5C331 210.571 219.071 322.5 81 322.5C52.6503 322.5 25.4028 317.781 0 309.086V0H320.326C327.268 22.9467 331 47.2875 331 72.5Z" fill="#F49398"/>
<path d="M456 600.5C317.929 600.5 206 712.429 206 850.5C206 917.889 232.664 979.04 276.017 1024H635.994C679.341 979.041 706 917.884 706 850.5C706 712.429 594.071 600.5 456 600.5Z" fill="#81C6AD"/>
<circle cx="438" cy="600.5" r="250" fill="#F49398"/>
<circle cx="1026" cy="396.5" r="250" fill="#F1DDA6"/>
<path d="M1026 303C1164.07 303 1276 191.071 1276 53C1276 34.8145 1274.06 17.0825 1270.37 0H781.629C777.942 17.0825 776 34.8145 776 53C776 191.071 887.929 303 1026 303Z" fill="#9EC7D0"/>
<path d="M350 896.5C350 758.429 238.071 646.5 100 646.5C64.4448 646.5 30.6231 653.922 0 667.302V1024H315.089C337.266 986.669 350 943.072 350 896.5Z" fill="#F9BD89"/>
<path d="M1096 230C1096 368.071 1207.93 480 1346 480C1379.25 480 1410.98 473.509 1440 461.726V-0.00376892H1247.87C1158.58 38.1425 1096 126.764 1096 230Z" fill="#51797C"/>
<path d="M1315 646.5C1176.93 646.5 1065 758.429 1065 896.5C1065 943.072 1077.73 986.669 1099.91 1024H1440V682.5V679.946C1403.23 658.674 1360.54 646.5 1315 646.5Z" fill="#835677"/>
<path d="M869 714.5C730.929 714.5 619 826.429 619 964.5C619 985.003 621.468 1004.93 626.124 1024H1111.88C1116.53 1004.93 1119 985.003 1119 964.5C1119 826.429 1007.07 714.5 869 714.5Z" fill="#BBE2DA"/>
<path fill-rule="evenodd" clip-rule="evenodd" d="M23 762.5C161.071 762.5 273 650.571 273 512.5C273 374.429 161.071 262.5 23 262.5C15.2458 262.5 7.57408 262.853 0 263.544V761.456C7.57408 762.147 15.2458 762.5 23 762.5Z" fill="#81C6AD"/>
</svg>
