<svg width="1024" height="1024" viewBox="0 0 1024 1024" fill="none" xmlns="http://www.w3.org/2000/svg">
<rect width="1024" height="1024" fill="#BBE2DA"/>
<path fill-rule="evenodd" clip-rule="evenodd" d="M892.118 1024C902.425 992.53 908 958.916 908 924C908 746.717 764.283 603 587 603C409.717 603 266 746.717 266 924C266 958.916 271.575 992.53 281.882 1024H892.118Z" fill="#F9BD89"/>
<path fill-rule="evenodd" clip-rule="evenodd" d="M892.118 1024C902.425 992.53 908 958.916 908 924C908 746.717 764.283 603 587 603C409.717 603 266 746.717 266 924C266 958.916 271.575 992.53 281.882 1024H892.118Z" fill="#F9BD89"/>
<path fill-rule="evenodd" clip-rule="evenodd" d="M165 561C342.283 561 486 417.283 486 240C486 144.533 444.324 58.7991 378.174 0H0V515.404C48.2174 544.354 104.665 561 165 561Z" fill="#81C6AD"/>
<path fill-rule="evenodd" clip-rule="evenodd" d="M701 735C701 862.14 774.915 972.016 882.118 1024H1024V414.006C1023.33 414.002 1022.67 414 1022 414C844.717 414 701 557.717 701 735Z" fill="#749496"/>
<circle cx="511.5" cy="518.5" r="464.5" fill="#F59983"/>
<path fill-rule="evenodd" clip-rule="evenodd" d="M283.458 1024C335.36 966.975 367 891.183 367 808C367 630.717 223.283 487 46 487C30.381 487 15.0226 488.116 0 490.271V1024H283.458Z" fill="#9C7892"/>
<path fill-rule="evenodd" clip-rule="evenodd" d="M1024 0H711.785C673.542 52.8398 651 117.787 651 188C651 365.283 794.717 509 972 509C989.705 509 1007.07 507.567 1024 504.81V0Z" fill="#F4E4B8"/>
<rect width="1024" height="1024" fill="white" fill-opacity="0.1"/>
<path fill-rule="evenodd" clip-rule="evenodd" d="M234.453 116.886C253.155 112.643 491.371 104.14 611.425 121.32C822.574 148.474 876.266 414.247 718.205 544.477C675.851 581.355 667.994 602.666 701.313 642.566L850.928 867.004C854.548 876.425 849.118 895.821 832.83 903.579C790.6 917.988 676.692 908.566 641.098 857.583C590.849 787.437 567.497 727.907 524.061 658.082C496.386 613.594 415.05 584.971 415.05 672.203C412.637 683.286 417.561 746.934 428.322 793.567C438.687 859.733 402.085 896.929 350.805 908.567C317.898 912.442 269.207 912.998 234.453 913C189.207 908.567 166.282 883.075 174.728 830.983C198.256 760.049 202.479 727.907 202.479 658.082V339.434C202.198 295.801 199.7 272.259 191.017 231.925C172.315 161.546 185.587 127.97 234.453 116.886ZM453.364 245.225C394.845 250.213 387.003 245.225 387.003 315.605V430.797C385.822 471.245 401.701 480.064 453.364 476.239L535.411 473.468C701.313 458.531 680.763 245.225 504.04 245.225H453.364Z" fill="black" stroke="black"/>
</svg>
