<svg width="296" height="299" viewBox="0 0 296 299" fill="none" xmlns="http://www.w3.org/2000/svg">
<path d="M295.922 125.119C295.904 118.771 294.323 112.381 291.002 106.932C286.834 100.1 280.299 94.8793 272.366 93.2632C267.777 92.3271 263.053 92.3457 258.371 92.3643L43.4413 92.0197C37.1032 92.0011 30.6996 91.9918 24.5158 93.3889C8.07418 97.1055 -0.242528 112.731 0.00538335 128.771L0.220551 264.587C0.220551 286.169 12.4524 298.995 33.029 299L263.942 298.995C283.513 298.986 295.913 285.997 295.936 265.472C295.987 218.685 296.054 171.896 295.927 125.11L295.922 125.119ZM276.936 268.895C276.782 274.647 272.619 278.988 267.038 279.518C265.733 279.644 264.414 279.466 263.1 279.47H33.4032C23.0003 279.47 19.0571 275.499 19.0571 264.732V126.866C19.0571 116.652 23.2108 112.251 32.9074 112.251H263.788C273.358 112.251 276.932 115.991 276.936 126V268.895Z" fill="#222222"/>
<path fill-rule="evenodd" clip-rule="evenodd" d="M37.5712 93.7251C39.2289 93.6783 40.9013 93.5289 42.5502 93.3514C43.6337 93.2346 45.6 91.4924 46.8989 90.3387C49.0882 88.3915 51.2495 86.4131 53.3583 84.3787C81.6709 57.0851 110.921 30.7927 139.718 4.0165C141.657 2.21355 144.669 -0.163912 148.429 0.00890896C152.231 0.181734 155.076 2.89083 156.888 4.91332C162.685 11.3871 168.477 17.8656 174.301 24.3861L179.659 30.3835L183.115 28.5525C187.543 26.2031 191.924 23.8817 196.315 21.5696C198.622 20.3552 202.102 18.8792 205.703 20.0235C209.3 21.1679 211.276 24.3861 212.453 26.7029L242.089 85.2848C242.089 85.2848 243.706 88.9701 244.878 90.5909C245.522 91.4805 246.326 92.1254 247.127 92.7685C247.744 93.2633 248.359 93.757 248.899 94.3603L37.5712 93.7251ZM147.313 24.8439L161.116 40.3184L90.2963 77.9329L147.313 24.8439ZM198.216 43.7048L106.331 92H223.937L198.216 43.7048Z" fill="#222222"/>
</svg>
