<svg width="223" height="209" viewBox="0 0 223 209" stroke="#ffffff" fill="none" xmlns="http://www.w3.org/2000/svg">
<path d="M87.5 17.5L109 1.5L166 43M166 43H178.5V62.5M166 43L56 43.898M43.5 62.5V44L56 43.898M43.5 62.5H1.5V95H7.5M43.5 62.5H56M178.5 62.5H166M178.5 62.5H221.5V95M56 43.898L79 25M60.5 95V80.5M60.5 95V154.5M60.5 95H7.5M60.5 80.5H79M60.5 80.5L56 77V62.5M79 80.5V154.5M79 80.5L84 77V62.5M79 154.5H60.5M79 154.5L84 160.5V171.5H56V160.5L60.5 154.5M56 62.5H84M84 62.5H138.5M138.5 62.5V77L143.5 80.5M138.5 62.5H166M143.5 80.5H162M143.5 80.5V154.5M162 80.5L166 77V62.5M162 80.5V95M143.5 154.5H162M143.5 154.5L138.5 160.5V171.5H166V160.5L162 154.5M162 154.5V95M7.5 95V115M7.5 127V187M217 163V187M217 150V95H162M7.5 187V207H41M7.5 187H41M217 187V207H186.5M217 187H186.5M41 187V207M41 187H48.5M41 207H186.5M186.5 187V207M186.5 187H176.5M48.5 187V171.5H176.5V187M48.5 187H176.5M96 130C100.5 114.5 120 115 125.5 130V171.5H96V130ZM96 90C96 70.5 125.5 70 125.5 90C125.5 110 96 107.5 96 90ZM19.5 146.5H49.5L48.5 121C43.5 103.5 25.5 103 19.5 121V146.5ZM172.5 146.5H202.5L201.5 121C196.5 103.5 178.5 103 172.5 121V146.5Z" stroke="#ffffff" stroke-width="3" stroke-linecap="round" stroke-linejoin="round"/>
</svg>
