<svg xmlns="http://www.w3.org/2000/svg" fill="none" viewBox="0 0 708 290"><path fill="#56B7B5" d="M290 0H0v290h290V0Z"/><path fill="#fff" d="M261.617 28.384H28.384v233.232h233.233V28.384Z"/><path fill="#FF7A7F" d="M142.403 86.685c.21-1.692.328-3.41.328-5.154 0-.184 0-.38-.013-.565a39.21 39.21 0 0 1-6.611.565c-13.575 0-25.55-6.887-32.62-17.353a91.115 91.115 0 0 0-25.865 19.884 58.557 58.557 0 0 1 21.484 24.855c10.192-12.932 25.721-21.458 43.284-22.232h.013Z"/><path fill="#8075B3" d="M165.566 81.53c0 2.912-.209 5.772-.59 8.579a58.318 58.318 0 0 1 10.69 5.18c-.617-1.94-.958-4-.958-6.151 0-11.07 8.867-20.042 19.885-20.265a90.84 90.84 0 0 0-22.573-10.637 39.501 39.501 0 0 1-7.595 11.24 63.818 63.818 0 0 1 1.155 12.041l-.014.014Z"/><path fill="#68C180" d="M224.852 188.388a90.782 90.782 0 0 0 4.984-10.807c-12.382-6.624-20.816-19.675-20.816-34.693 0-1.39.079-2.767.223-4.131a41.19 41.19 0 0 0-5.863 7.581c-.197 8.591-2.216 16.723-5.732 24.016a40.769 40.769 0 0 0 7.149 20.422 58.38 58.38 0 0 1 16.828-2.466c1.089 0 2.164.039 3.24.092l-.013-.014Z"/><path fill="#FFB985" d="M194.986 109.429c-1.364 0-2.702-.145-3.987-.394a58.251 58.251 0 0 1 6.204 9.785 63.67 63.67 0 0 1 29.249-14.074 90.91 90.91 0 0 0-11.28-17.457c.052.616.092 1.232.092 1.862 0 11.201-9.077 20.278-20.278 20.278Z"/><path fill="#56B7B5" d="M90.555 217.716a32.906 32.906 0 0 1-.184-3.436c0-11.241 5.758-21.143 14.467-26.928a62.152 62.152 0 0 1-2.912-2.964h-.262c-12.093 0-22.966 5.233-30.482 13.562a91.405 91.405 0 0 0 19.36 19.78l.013-.014Z"/><path fill="#68C180" d="M160.792 201.216a64.745 64.745 0 0 1 2.663 7.922 32.455 32.455 0 0 1 4.958-.38c2.754 0 5.43.341 7.974.997a59.03 59.03 0 0 1 8.185-8.211c-1.902-3.017-3.581-6.191-4.958-9.522a58.344 58.344 0 0 1-18.822 9.181v.013Z"/><path fill="#FFD0D0" d="M86.62 145c0-.459.013-.918.026-1.377a63.72 63.72 0 0 1-30.535-17.327A91.493 91.493 0 0 0 54.157 145a90.86 90.86 0 0 0 5.824 32.056c8.237-7.109 18.31-12.146 29.406-14.297A57.976 57.976 0 0 1 86.607 145h.013Zm-8.985-60.938a90.434 90.434 0 0 0-12.12 16.959c5.404 9.995 14.822 17.497 26.102 20.344a58.406 58.406 0 0 1 7.502-12.448 58.635 58.635 0 0 0-21.484-24.855Z"/><path fill="#68C180" d="M221.612 188.297c-5.85 0-11.49.865-16.828 2.465a41.427 41.427 0 0 0 11.162 10.953c3.331-4.158 6.335-8.605 8.906-13.327a66.912 66.912 0 0 0-3.24-.091Zm-37.04 13.26a58.329 58.329 0 0 0-8.185 8.211c7.135 1.81 13.313 6.007 17.668 11.673a85.965 85.965 0 0 0 5.246-3.62 64.283 64.283 0 0 1-14.729-16.264Z"/><path fill="#FF9852" d="M174.708 89.138c0 2.151.341 4.21.958 6.151a58.762 58.762 0 0 1 15.333 13.733c1.285.262 2.623.394 3.987.394 11.201 0 20.278-9.077 20.278-20.278 0-.63-.04-1.246-.092-1.863-5.876-7.135-12.828-13.326-20.58-18.402-11.017.21-19.884 9.195-19.884 20.265Z"/><path fill="#C5E3A1" d="M179.614 192.035a64.321 64.321 0 0 0 4.957 9.522 58.388 58.388 0 0 1 20.213-10.794 40.772 40.772 0 0 1-7.149-20.422c-4.158 8.63-10.388 16.067-18.021 21.694Z"/><path fill="#FFB985" d="M203.407 145c0 .446-.026.892-.039 1.325a41.058 41.058 0 0 1 5.862-7.581c1.325-12.697 8.697-23.597 19.19-29.774a90.002 90.002 0 0 0-1.968-4.25 63.608 63.608 0 0 0-29.249 14.074 58.168 58.168 0 0 1 6.204 26.193V145Z"/><path fill="#C5E3A1" d="M215.946 201.715a41.064 41.064 0 0 1-11.162-10.952 58.151 58.151 0 0 0-20.212 10.794 64.283 64.283 0 0 0 14.729 16.264 91.334 91.334 0 0 0 16.645-16.106Z"/><path fill="#8075B3" d="M142.718 80.966c0 .184.013.38.013.565 0 1.744-.118 3.462-.328 5.154.866-.04 1.731-.079 2.61-.079a58.186 58.186 0 0 1 19.963 3.503c.38-2.807.59-5.667.59-8.578 0-4.119-.406-8.133-1.154-12.041-5.705 5.915-13.234 10.047-21.694 11.477Z"/><path fill="#FFA6B2" d="M86.646 143.623a58.128 58.128 0 0 1 4.971-22.272c-11.28-2.833-20.71-10.335-26.101-20.343a90.438 90.438 0 0 0-9.405 25.288c8.224 8.368 18.743 14.481 30.535 17.327Z"/><path fill="#56B7B5" d="M101.677 184.388h.263a58.507 58.507 0 0 1-10.06-15.189c-6.847 8.683-16.094 15.386-26.758 19.085a92.549 92.549 0 0 0 6.06 9.653c7.516-8.329 18.389-13.562 30.482-13.562l.013.013Z"/><path fill="#56B7B5" d="M91.88 169.213c-.958-2.086-1.771-4.25-2.48-6.454a63.75 63.75 0 0 0-29.406 14.297 91.682 91.682 0 0 0 5.128 11.241c10.664-3.699 19.91-10.388 26.757-19.084Zm12.958 18.139c-8.722 5.785-14.467 15.687-14.467 26.928 0 1.154.066 2.308.184 3.436a90.255 90.255 0 0 0 46.051 17.734 32.06 32.06 0 0 1 5.955-13.759 40.813 40.813 0 0 0-6.716-19.032c-11.923-1.889-22.639-7.371-31.007-15.307Z"/><path fill="#2E9C86" d="M145.013 203.393c-3.121 0-6.191-.249-9.168-.721a40.75 40.75 0 0 1 6.715 19.032 32.512 32.512 0 0 1 12.29-9.955 31.792 31.792 0 0 0-1.98-8.893 59.73 59.73 0 0 1-7.857.537Z"/><path fill="#68C180" d="M163.455 209.151a63.656 63.656 0 0 1 2.111 16.304c0 1.967-.105 3.909-.275 5.837a58.228 58.228 0 0 1 11.096-21.524 32.455 32.455 0 0 0-12.932-.617Z"/><path fill="#68C180" d="M176.387 209.755a58.228 58.228 0 0 0-11.096 21.524 48.311 48.311 0 0 1-.262 2.321c10.479-2.361 20.264-6.545 29.026-12.172-4.355-5.666-10.533-9.863-17.668-11.673Z"/><path fill="#2E9C86" d="M154.85 211.749a32.26 32.26 0 0 1 8.604-2.611 64.572 64.572 0 0 0-2.662-7.922 58.524 58.524 0 0 1-7.922 1.64 31.784 31.784 0 0 1 1.98 8.893Z"/><path fill="#2E9C86" d="M163.455 209.151a32.293 32.293 0 0 0-8.605 2.611c.066.839.105 1.679.105 2.531 0 8.276-3.121 15.818-8.237 21.537a90.989 90.989 0 0 0 17.956-2.138c.184-.813.381-1.613.604-2.4.17-1.928.275-3.87.275-5.837 0-5.64-.734-11.096-2.112-16.304h.014Z"/><path fill="#56B7B5" d="M165.029 233.6c.091-.774.183-1.534.262-2.321-.223.8-.42 1.6-.603 2.4.118-.026.222-.066.341-.092v.013Zm-23.596 2.177a41.245 41.245 0 0 0 1.311-10.322c0-1.259-.065-2.518-.183-3.751a32.15 32.15 0 0 0-5.955 13.759c1.6.144 3.2.262 4.814.328l.013-.014Z"/><path fill="#2E9C86" d="M154.851 211.749a32.254 32.254 0 0 0-12.29 9.955c.118 1.233.183 2.492.183 3.751 0 3.568-.459 7.03-1.311 10.322 1.193.053 2.387.079 3.58.079.577 0 1.141-.013 1.705-.026 5.116-5.719 8.237-13.261 8.237-21.537 0-.852-.039-1.705-.104-2.531v-.013Z"/><path fill="#825282" d="M164.412 69.49a39.478 39.478 0 0 0 7.594-11.24 89.397 89.397 0 0 0-12.04-2.86 63.988 63.988 0 0 1 4.446 14.1Zm-28.305 12.04c2.256 0 4.46-.196 6.611-.564-.131-9.902-3.778-18.965-9.745-25.996a90.32 90.32 0 0 0-29.486 9.208c7.07 10.466 19.032 17.353 32.62 17.353Z"/><path fill="#825282" d="M164.412 69.49a63.521 63.521 0 0 0-4.446-14.1 90.689 90.689 0 0 0-14.953-1.246c-4.079 0-8.093.302-12.027.826a40.94 40.94 0 0 1 9.745 25.996c8.46-1.43 15.989-5.56 21.694-11.476h-.013Z"/><path fill="#2E9C86" d="M229.836 177.581A90.711 90.711 0 0 0 235.869 145c0-6.283-.655-12.421-1.875-18.35-9.667 1.076-18.31 5.509-24.751 12.107a39.13 39.13 0 0 0-.222 4.131c0 15.031 8.433 28.082 20.815 34.693Z"/><path fill="#2E9C86" d="M233.994 126.65a90.174 90.174 0 0 0-5.562-17.667c-10.493 6.178-17.864 17.064-19.189 29.774 6.454-6.598 15.097-11.018 24.751-12.107Z"/><path fill="#000" d="M369.243 159.617v42.135H357V91.724h40.704c11.66 0 20.405 2.703 26.235 8.109 5.936 5.406 8.904 13.833 8.904 25.281 0 16.96-6.731 27.613-20.193 31.959l21.147 44.679h-13.515l-19.875-42.135h-31.164Zm28.62-10.812c14.946 0 22.419-7.685 22.419-23.055 0-15.476-7.526-23.214-22.578-23.214h-28.461v46.269h28.62Zm111.175-2.544v40.704c.318 3.922 3.392 6.254 9.222 6.996l-.477 9.381c-8.374 0-14.681-2.12-18.921-6.36-9.54 4.24-19.08 6.36-28.62 6.36-7.314 0-12.879-2.067-16.695-6.201-3.816-4.134-5.724-10.07-5.724-17.808 0-7.738 1.961-13.409 5.883-17.013 3.922-3.71 10.07-5.989 18.444-6.837l24.963-2.385v-6.837c0-5.406-1.166-9.275-3.498-11.607-2.332-2.332-5.512-3.498-9.54-3.498-8.48 0-17.278.53-26.394 1.59l-4.929.477-.477-9.063c11.66-2.332 21.995-3.498 31.005-3.498 9.01 0 15.529 2.067 19.557 6.201 4.134 4.134 6.201 10.6 6.201 19.398Zm-48.972 32.436c0 9.752 4.028 14.628 12.084 14.628 7.208 0 14.31-1.219 21.306-3.657l3.657-1.272v-26.235l-23.532 2.226c-4.77.424-8.215 1.802-10.335 4.134-2.12 2.332-3.18 5.724-3.18 10.176Zm87.764-46.11v69.165h-11.925v-69.165h-10.017v-10.335h10.017v-7.155c0-11.236 1.59-18.868 4.77-22.896C543.855 88.067 549.42 86 557.37 86l16.059 1.113-.159 9.858c-5.936-.212-10.865-.318-14.787-.318-3.816 0-6.572 1.272-8.268 3.816-1.59 2.544-2.385 7.473-2.385 14.787v6.996h23.055v10.335H547.83Zm37.374 69.165v-79.5h11.925v79.5h-11.925Zm0-97.467V90.452h11.925v13.833h-11.925Zm46.706 97.467h-11.925V87.59h11.925v67.416l12.402-.636 22.737-32.118h13.515l-25.917 36.57 27.03 42.93h-13.515l-23.691-36.888-12.561.477v36.411Zm64.159 0v-79.5h11.925v79.5h-11.925Zm0-97.467V90.452h11.925v13.833h-11.925Z"/></svg>
