<svg width="122" height="121" viewBox="0 0 122 121" fill="none" xmlns="http://www.w3.org/2000/svg">
<path fill-rule="evenodd" clip-rule="evenodd" d="M86.3358 70.5C90.566 63.4937 93 55.2811 93 46.5C93 20.8188 72.1812 0 46.5 0C20.8188 0 0 20.8188 0 46.5C0 72.1812 20.8188 93 46.5 93C55.2811 93 63.4937 90.566 70.5 86.3358L98 113.5C112 129.5 131.5 115 114.5 98.5L86.3358 70.5ZM47 76C63.0163 76 76 63.0163 76 47C76 30.9837 63.0163 18 47 18C30.9837 18 18 30.9837 18 47C18 63.0163 30.9837 76 47 76Z" fill="black"/>
</svg>
