<svg width="119" height="30" viewBox="0 0 119 30" fill="none" xmlns="http://www.w3.org/2000/svg">
<path fill-rule="evenodd" clip-rule="evenodd" d="M36.7336 18.1433C35.9852 11.0322 31.5409 5.03729 25.3805 2.16016H19.6295V6.92203C25.1444 7.99959 29.4555 12.496 30.3175 18.1433H36.7336Z" fill="#F59297"/>
<path fill-rule="evenodd" clip-rule="evenodd" d="M36.7473 18.2793H30.338C30.4291 18.9161 30.4761 19.5678 30.4761 20.2294C30.4761 22.232 30.0471 24.1326 29.2762 25.843V28.4379H35.1242C36.2301 25.947 36.8462 23.1848 36.8462 20.277C36.8443 19.6035 36.812 18.9369 36.7473 18.2793Z" fill="#FABD84"/>
<path fill-rule="evenodd" clip-rule="evenodd" d="M33.3277 15.3672C31.7555 15.3672 30.481 16.6557 30.481 18.2453V18.6514C30.481 20.241 31.7555 21.5295 33.3277 21.5295C34.8999 21.5295 36.1743 20.241 36.1743 18.6514V18.2453C36.1752 16.6557 34.9008 15.3672 33.3277 15.3672Z" fill="#FCC9B3"/>
<path fill-rule="evenodd" clip-rule="evenodd" d="M17.7536 0.341933C17.542 0.335 17.3304 0.332031 17.1169 0.332031C9.79465 0.332031 3.40398 4.36596 0 10.3559H7.88744C10.2864 8.07404 13.517 6.67658 17.0699 6.67658C17.2991 6.67658 17.5273 6.68252 17.7536 6.69341V0.341933Z" fill="#978AA4"/>
<path fill-rule="evenodd" clip-rule="evenodd" d="M34.7706 11.365C34.6364 11.369 34.5012 11.371 34.366 11.371C27.7814 11.371 22.2478 6.81807 20.6776 0.655762C26.8645 1.79572 32.0435 5.85243 34.7706 11.365Z" fill="#CE6564"/>
<path d="M48.9008 7.47865C50.3427 7.18053 52.4076 7.01514 54.3736 7.01514C57.422 7.01514 59.388 7.57868 60.7643 8.83748C61.879 9.83185 62.501 11.3561 62.501 13.0794C62.501 16.0288 60.6653 17.9839 58.3389 18.7792V18.8782C60.0433 19.4745 61.0591 21.0651 61.5832 23.3846C62.3041 26.4994 62.8282 28.6535 63.2876 29.5152H60.3381C59.9777 28.8853 59.4859 26.9639 58.8629 24.1799C58.2076 21.0977 57.0272 19.938 54.4382 19.8389H51.7503V29.5152H48.8988V7.47865H48.9008ZM51.7523 17.6521H54.6694C57.7178 17.6521 59.6515 15.9625 59.6515 13.4102C59.6515 10.5271 57.5865 9.26831 54.5715 9.23464C53.1952 9.23464 52.2117 9.36735 51.7533 9.50007V17.6521H51.7523Z" fill="#1E3250"/>
<path d="M75.6115 29.5149L75.3823 27.4935H75.2843C74.3998 28.7523 72.6953 29.8794 70.4335 29.8794C67.2215 29.8794 65.5827 27.5926 65.5827 25.273C65.5827 21.3956 68.9916 19.2751 75.1197 19.3088V18.977C75.1197 17.6519 74.7592 15.266 71.5149 15.266C70.0397 15.266 68.4998 15.7295 67.3851 16.4584L66.7298 14.536C68.0404 13.6744 69.9418 13.1108 71.9411 13.1108C76.7918 13.1108 77.9712 16.4574 77.9712 19.6723V25.6702C77.9712 27.0617 78.0369 28.4206 78.2338 29.514H75.6115V29.5149ZM75.1854 21.3302C72.039 21.2639 68.4665 21.8274 68.4665 24.9422C68.4665 26.8309 69.7116 27.7253 71.1868 27.7253C73.2517 27.7253 74.5624 26.4001 75.0218 25.0413C75.1197 24.7432 75.1854 24.4114 75.1854 24.1133V21.3302Z" fill="#1E3250"/>
<path d="M82.919 29.5151V15.697H80.6905V13.4765H82.919V12.6148C82.919 8.37292 85.3767 5.62256 89.8347 5.62256C91.3099 5.62256 93.0467 6.08607 93.8656 6.68328L93.0467 8.90378C92.3581 8.40659 91.1131 7.97577 89.7035 7.97577C86.6551 7.97577 85.7705 10.1299 85.7705 12.6812V13.4765H94.9804V29.5151H92.1289V15.697H85.7705V29.5151H82.919Z" fill="#1E3250"/>
<path d="M102.616 20.833H102.682C103.075 20.2695 103.632 19.5742 104.091 19.0107L108.745 13.4763H112.219L106.09 20.0704L113.071 29.5139H109.564L104.09 21.8264L102.615 23.4833V29.5139H99.7636V5.98779H102.615V20.833H102.616Z" fill="#1E3250"/>
<path d="M118.905 8.9703C118.938 9.96467 118.217 10.76 117.07 10.76C116.054 10.76 115.333 9.96467 115.333 8.9703C115.333 7.94325 116.087 7.14795 117.135 7.14795C118.217 7.14795 118.905 7.94325 118.905 8.9703ZM115.693 29.5153V13.4766H118.577V29.5153H115.693Z" fill="#1E3250"/>
</svg>
